<svg width="34" height="35" viewBox="0 0 34 35" fill="none" xmlns="http://www.w3.org/2000/svg">
<path d="M14.875 18.9583H4.95833C4.53333 18.9583 4.25 19.25 4.25 19.6875V29.8958C4.25 30.3333 4.53333 30.625 4.95833 30.625H14.875C15.3 30.625 15.5833 30.3333 15.5833 29.8958V19.6875C15.5833 19.25 15.3 18.9583 14.875 18.9583ZM14.1667 29.1667H5.66667V20.4167H14.1667V29.1667ZM14.875 4.375H4.95833C4.53333 4.375 4.25 4.66667 4.25 5.10417V15.3125C4.25 15.75 4.53333 16.0417 4.95833 16.0417H14.875C15.3 16.0417 15.5833 15.75 15.5833 15.3125V5.10417C15.5833 4.66667 15.3 4.375 14.875 4.375ZM14.1667 14.5833H5.66667V5.83333H14.1667V14.5833ZM29.0417 4.375H19.125C18.7 4.375 18.4167 4.66667 18.4167 5.10417V15.3125C18.4167 15.75 18.7 16.0417 19.125 16.0417H29.0417C29.4667 16.0417 29.75 15.75 29.75 15.3125V5.10417C29.75 4.66667 29.4667 4.375 29.0417 4.375ZM28.3333 14.5833H19.8333V5.83333H28.3333V14.5833ZM29.0417 24.0625H24.7917V19.6875C24.7917 19.25 24.5083 18.9583 24.0833 18.9583C23.6583 18.9583 23.375 19.25 23.375 19.6875V24.0625H19.125C18.7 24.0625 18.4167 24.3542 18.4167 24.7917C18.4167 25.2292 18.7 25.5208 19.125 25.5208H23.375V29.8958C23.375 30.3333 23.6583 30.625 24.0833 30.625C24.5083 30.625 24.7917 30.3333 24.7917 29.8958V25.5208H29.0417C29.4667 25.5208 29.75 25.2292 29.75 24.7917C29.75 24.3542 29.4667 24.0625 29.0417 24.0625Z" fill="#1E3A8A"/>
</svg>
