<svg xmlns="http://www.w3.org/2000/svg" viewBox="0 0 64 64" id="creative-brain">
  <path d="M39.217,34.147a5.979,5.979,0,0,1,.856,3.083A6.054,6.054,0,0,1,34.962,43.2a1,1,0,0,0-.837,1c0,.057.008.137.011.09A3.732,3.732,0,0,1,30.386,48a1,1,0,0,0-1,1,3.732,3.732,0,0,1-3.75,3.706c-.634,0-2.563,0-2.563-3.706V19.583c0-1.468.365-4.882,3.75-4.882a4.915,4.915,0,0,1,4.88,4.207,8.1,8.1,0,0,0-4.523,3.274L28.841,23.3a6.173,6.173,0,0,1,7.8-2.1l.872-1.8a8.017,8.017,0,0,0-3.562-.8v-.011c-.044,0-.087.007-.131.008s-.085-.005-.129,0A6.93,6.93,0,0,0,26.823,12.7a5.219,5.219,0,0,0-4.75,2.644,5.218,5.218,0,0,0-4.75-2.644,6.931,6.931,0,0,0-6.865,5.887c-.048,0-.1,0-.143,0s-.077-.007-.117-.007v.009A8.032,8.032,0,0,0,4.082,31.937,8.016,8.016,0,0,0,8.055,45a5.74,5.74,0,0,0,4.781,4.924A5.747,5.747,0,0,0,18.511,54.7a4.053,4.053,0,0,0,3.562-1.8,4.055,4.055,0,0,0,3.563,1.8,5.745,5.745,0,0,0,5.674-4.779A5.74,5.74,0,0,0,36.091,45,8.019,8.019,0,0,0,40.93,33.116ZM21.073,49c0,3.706-1.928,3.706-2.562,3.706A3.732,3.732,0,0,1,14.761,49a1,1,0,0,0-1-1,3.733,3.733,0,0,1-3.75-3.658c.005-.048.01-.105.01-.138a1,1,0,0,0-.836-1A6.024,6.024,0,0,1,6.154,32.69l.006-.007a6.159,6.159,0,0,1,9.146,1.2l1.661-1.115A8.156,8.156,0,0,0,5.584,30.606a6.005,6.005,0,0,1-1.511-3.963A6.145,6.145,0,0,1,15.306,23.3l1.661-1.115a8.111,8.111,0,0,0-4.511-3.271,4.909,4.909,0,0,1,4.867-4.21c3.385,0,3.75,3.414,3.75,4.882Z"></path>
  <path d="M59.739 11.077a4.033 4.033 0 0 0-2.092-1.621 2.943 2.943 0 0 0-2.543.306L28.6 27.462l0 0a1 1 0 0 0-.244.246.8.8 0 0 0-.051.078c-.015.026-.036.048-.049.076L24.259 36.3a1 1 0 0 0 .9 1.428.969.969 0 0 0 .206-.022l8.43-1.781c.016 0 .03-.012.046-.016a.786.786 0 0 0 .093-.032 1.015 1.015 0 0 0 .16-.075c.016-.01.034-.013.05-.024l26.509-17.7a2.941 2.941 0 0 0 1.257-2.231 4.026 4.026 0 0 0-.694-2.554zM26.928 35.333L29.3 30.318l2.642 3.956zm6.941-1.773l-3.332-4.99L52.16 14.133l3.332 4.989zM59.546 16.415l-2.391 1.6-3.331-4.99 2.39-1.6a.979.979 0 0 1 .824-.065 2.057 2.057 0 0 1 1.038.827l1.481 2.217a2.054 2.054 0 0 1 .364 1.275A.973.973 0 0 1 59.546 16.415zM58.266 51.036c-3.65-1.008-4.294-1.652-5.3-5.3a1 1 0 0 0-1.928 0c-1.008 3.651-1.652 4.3-5.3 5.3a1 1 0 0 0 0 1.928c3.65 1.008 4.294 1.652 5.3 5.3a1 1 0 0 0 1.928 0c1.008-3.651 1.652-4.3 5.3-5.3a1 1 0 0 0 0-1.928zM52 54.988A5.825 5.825 0 0 0 49.012 52 5.825 5.825 0 0 0 52 49.012 5.825 5.825 0 0 0 54.988 52 5.825 5.825 0 0 0 52 54.988z"></path>
</svg>
