<svg width="32" height="32" viewBox="0 0 32 32" fill="none" xmlns="http://www.w3.org/2000/svg">
<path d="M23.9524 9.50493C24.2692 9.40988 24.491 9.12473 24.491 8.77622V6.08315C24.491 5.67127 24.1425 5.32275 23.7306 5.32275H8.26919C7.8573 5.32275 7.50879 5.67127 7.50879 6.08315V8.77622C7.50879 9.12473 7.73057 9.40988 8.0474 9.50493C8.30087 12.3881 10.1068 14.8277 12.6098 16C10.1068 17.1723 8.30087 19.6119 8.0474 22.495C7.73057 22.5901 7.50879 22.8752 7.50879 23.2237V25.9168C7.50879 26.3287 7.8573 26.6772 8.26919 26.6772H23.7306C24.1425 26.6772 24.491 26.3287 24.491 25.9168V23.2237C24.491 22.8752 24.2692 22.5901 23.9524 22.495C23.6989 19.6119 21.8929 17.1723 19.39 16C21.8929 14.8277 23.6989 12.3881 23.9524 9.50493ZM9.02958 6.84355H22.9702V8.01582H9.02958V6.84355ZM22.9702 25.1564H9.02958V23.9841H22.9702V25.1564ZM22.4316 22.4633H9.5682C9.94839 19.2633 12.6731 16.7604 15.9999 16.7604C19.3266 16.7604 22.0514 19.2633 22.4316 22.4633ZM15.9999 15.2396C12.6731 15.2396 9.94839 12.7366 9.5682 9.53662H22.4316C22.0514 12.7366 19.3266 15.2396 15.9999 15.2396Z" fill="#7198B5"/>
</svg>
