<svg width="24" height="24" viewBox="0 0 24 24" fill="none" xmlns="http://www.w3.org/2000/svg">
<path d="M12 2C11.4 2 11 2.4 11 3V6C11 6.6 11.4 7 12 7C12.6 7 13 6.6 13 6V3C13 2.4 12.6 2 12 2ZM14.5 7.7C14.7 7.8 14.8 7.8 15 7.8C15.3 7.8 15.7 7.6 15.9 7.3L17.4 4.7C17.7 4.2 17.5 3.6 17 3.3C16.5 3 15.9 3.2 15.6 3.7L14.1 6.3C13.9 6.8 14 7.4 14.5 7.7ZM16.3 9.5C16.5 9.8 16.8 10 17.2 10C17.4 10 17.5 10 17.7 9.9L20.3 8.4C20.8 8.1 20.9 7.5 20.7 7C20.4 6.5 19.8 6.4 19.3 6.6L16.7 8.1C16.2 8.4 16.1 9 16.3 9.5ZM21 11H18C17.4 11 17 11.4 17 12C17 12.6 17.4 13 18 13H21C21.6 13 22 12.6 22 12C22 11.5 21.6 11 21 11ZM20.3 15.7L17.7 14.2C17.2 13.9 16.6 14.1 16.3 14.6C16 15.1 16.2 15.7 16.7 16L19.3 17.5C19.5 17.6 19.6 17.6 19.8 17.6C20.1 17.6 20.5 17.4 20.7 17.1C20.9 16.5 20.8 15.9 20.3 15.7ZM15.8 16.7C15.5 16.2 14.9 16.1 14.4 16.3C13.9 16.6 13.8 17.2 14 17.7L15.5 20.3C15.7 20.6 16 20.8 16.4 20.8C16.6 20.8 16.7 20.8 16.9 20.7C17.4 20.4 17.5 19.8 17.3 19.3L15.8 16.7ZM12 17C11.5 17 11 17.4 11 18V21C11 21.6 11.4 22 12 22C12.5 22 13 21.6 13 21V18C13 17.5 12.5 17 12 17ZM9.5 16.3C9 16 8.4 16.2 8.1 16.7L6.6 19.3C6.3 19.8 6.5 20.4 7 20.7C7.2 20.8 7.3 20.8 7.5 20.8C7.8 20.8 8.2 20.6 8.4 20.3L9.9 17.7C10.1 17.2 10 16.6 9.5 16.3ZM7.7 14.5C7.4 14 6.8 13.9 6.3 14.1L3.7 15.6C3.2 15.9 3.1 16.5 3.3 17C3.5 17.3 3.8 17.5 4.2 17.5C4.4 17.5 4.5 17.5 4.7 17.4L7.3 15.9C7.8 15.6 7.9 15 7.7 14.5ZM6 13C6.5 13 7 12.6 7 12C7 11.4 6.6 11 6 11H3C2.5 11 2 11.4 2 12C2 12.6 2.4 13 3 13H6ZM3.7 8.3L6.3 9.8C6.5 9.9 6.7 10 6.8 10C7.1 10 7.5 9.8 7.7 9.5C8 9 7.8 8.4 7.3 8.1L4.7 6.6C4.3 6.3 3.7 6.5 3.4 6.9C3.1 7.4 3.3 8 3.7 8.3Z" fill="#7198B5"/>
</svg>
