<svg width="23" height="27" viewBox="0 0 23 27" fill="none" xmlns="http://www.w3.org/2000/svg">
<path d="M2.8213 18.6989H4.00823V9.48768C4.00823 5.56053 7.06497 2.29768 10.9677 2.05834L11.9661 1.99679L11.843 0L10.8446 0.0615449C5.88975 0.365362 2.00754 4.50548 2.00754 9.48768V16.8174C0.846975 17.1661 0 18.2407 0 19.5088C0 21.064 1.26607 22.3301 2.8213 22.3301H5.89433C6.37051 24.979 8.68791 26.9977 11.4718 26.9977C14.2513 26.9977 16.5643 24.979 17.0396 22.3301H20.1154C21.6706 22.3301 22.9367 21.064 22.9367 19.5088C22.9367 18.2407 22.0888 17.1652 20.9282 16.8174V11.5265H18.9275V18.6989H20.1154C20.5677 18.6989 20.936 19.0623 20.936 19.5088C20.936 19.9611 20.5677 20.3294 20.1154 20.3294H2.8213C2.36899 20.3294 2.0007 19.9611 2.0007 19.5088C2.0007 19.0623 2.36899 18.6989 2.8213 18.6989ZM11.4718 24.997C9.79816 24.997 8.39801 23.8642 7.95785 22.3301H14.9764C14.5375 23.8642 13.1414 24.997 11.4718 24.997Z" fill="#B50E0E"/>
</svg>
