<svg width="32" height="32" viewBox="0 0 32 32" fill="none" xmlns="http://www.w3.org/2000/svg">
<path fill-rule="evenodd" clip-rule="evenodd" d="M16 16C19.9292 16 23.1111 12.8181 23.1111 8.88889C23.1111 4.95964 19.9292 1.77778 16 1.77778C12.0708 1.77778 8.88889 4.95964 8.88889 8.88889C8.88889 12.8181 12.0708 16 16 16ZM24.8889 8.88889C24.8889 13.8 20.9111 17.7778 16 17.7778C11.0889 17.7778 7.11111 13.8 7.11111 8.88889C7.11111 3.97778 11.0889 0 16 0C20.9111 0 24.8889 3.97778 24.8889 8.88889ZM2.86532 25.0772C1.97367 25.7965 1.77778 26.337 1.77778 26.6667V30.2222H30.2222V26.6667C30.2222 26.337 30.0263 25.7965 29.1347 25.0772C28.2629 24.374 26.9636 23.7039 25.3886 23.1244C22.2399 21.966 18.4473 21.3333 16 21.3333C13.5527 21.3333 9.76009 21.966 6.61138 23.1244C5.03636 23.7039 3.73707 24.374 2.86532 25.0772ZM16 19.5556C10.66 19.5556 0 22.2531 0 26.6667V32H32V26.6667C32 22.2531 21.34 19.5556 16 19.5556Z" fill="#7C7C7C"/>
</svg>
