<svg id="SvgjsSvg1001" width="288" height="288" xmlns="http://www.w3.org/2000/svg" version="1.1" xmlns:xlink="http://www.w3.org/1999/xlink" xmlns:svgjs="http://svgjs.com/svgjs"><defs id="SvgjsDefs1002"></defs><g id="SvgjsG1008"><svg xmlns="http://www.w3.org/2000/svg" fill="none" viewBox="0 0 24 24" width="288" height="288"><g fill="#f0f0f0" fill-rule="evenodd" clip-rule="evenodd" class="color000 svgShape"><path d="m16.2929 5.29289c.3905-.39052 1.0237-.39052 1.4142 0l6 6.00001c.3905.3905.3905 1.0237 0 1.4142l-6 6c-.3905.3905-1.0237.3905-1.4142 0s-.3905-1.0237 0-1.4142l5.2929-5.2929-5.2929-5.29289c-.3905-.39053-.3905-1.02369 0-1.41422z"></path><path d="m0 12c0-.5523.447715-1 1-1h22c.5523 0 1 .4477 1 1s-.4477 1-1 1h-22c-.552285 0-1-.4477-1-1z"></path></g></svg></g></svg>