<svg width="32" height="32" viewBox="0 0 32 32" fill="none" xmlns="http://www.w3.org/2000/svg">
<path d="M13.2767 20.8768C15.1219 20.8768 16.8646 20.2227 18.2515 19.0329L24.9932 25.792C25.0524 25.8518 25.1228 25.8993 25.2004 25.9317C25.278 25.9642 25.3613 25.9809 25.4454 25.9811C25.5296 25.9812 25.6129 25.9646 25.6906 25.9324C25.7683 25.9002 25.8388 25.8529 25.8982 25.7932C26.0183 25.6734 26.086 25.5107 26.0862 25.341C26.0864 25.1713 26.0193 25.0085 25.8995 24.8883L19.1519 18.1241C21.678 15.1072 21.5308 10.5894 18.7007 7.75292C17.2518 6.30012 15.3254 5.50012 13.2761 5.50012C11.2268 5.50012 9.30042 6.30012 7.85146 7.75292C4.86202 10.75 4.86202 15.6275 7.85146 18.6246C8.56164 19.3405 9.40691 19.9082 10.3382 20.2948C11.2695 20.6814 12.2684 20.8792 13.2767 20.8768ZM8.75834 8.6566C9.96538 7.44636 11.5699 6.78012 13.2767 6.78012C14.9836 6.78012 16.5881 7.44636 17.7951 8.6566C20.2879 11.1558 20.2879 15.2217 17.7951 17.7209C16.5881 18.9312 14.9836 19.5974 13.2767 19.5974C11.5699 19.5974 9.96538 18.9312 8.75834 17.7209C6.26618 15.2217 6.26618 11.1558 8.75834 8.6566Z" fill="#7198B5"/>
</svg>
