<svg xmlns="http://www.w3.org/2000/svg" viewBox="0 0 64 64" id="document">
  <path d="M61,18.34A3.43,3.43,0,0,0,59.76,16l-1.91-1.6a3.48,3.48,0,0,0-4.9.43l-2.4,2.85L47,21.9V11.83a3,3,0,0,0-.88-2.12L39.29,2.88A3,3,0,0,0,37.17,2H6A3,3,0,0,0,3,5V59a3,3,0,0,0,3,3H44a3,3,0,0,0,3-3V36.59L60.19,20.88A3.48,3.48,0,0,0,61,18.34ZM45,59a1,1,0,0,1-1,1H6a1,1,0,0,1-1-1V5A1,1,0,0,1,6,4H37v7a1,1,0,0,0,1,1h7V24.29L32.2,39.54a.93.93,0,0,0-.2.38s0,0,0,0l-1.93,8.1a1,1,0,0,0,.33,1,1,1,0,0,0,.64.24,1.14,1.14,0,0,0,.4-.08l7.64-3.32h0a1,1,0,0,0,.36-.27L45,39ZM38.55,43.56l-4.18-3.5L51.44,19.71l4.18,3.51Z"></path>
  <path d="M11 14H22a1 1 0 0 0 0-2H11a1 1 0 0 0 0 2zM11 23H39a1 1 0 0 0 0-2H11a1 1 0 0 0 0 2zM11 32H33a1 1 0 0 0 0-2H11a1 1 0 0 0 0 2zM28 38H11a1 1 0 0 0 0 2H28a1 1 0 0 0 0-2zM27 47H11a1 1 0 0 0 0 2H27a1 1 0 0 0 0-2z"></path>
</svg>
