<svg width="500" height="568" viewBox="0 0 500 568" fill="none" xmlns="http://www.w3.org/2000/svg">
<g clip-path="url(#clip0_44_30)">
<path d="M470.273 118.224C444.312 80.2293 399.419 52.7261 351.405 39.817L345.074 63.039C345.599 62.0653 346.449 61.286 347.49 60.824C350.562 59.5676 352.66 60.4727 353.628 61.6278C355.014 59.5498 356.55 58.2339 358.679 57.5193C363.749 55.8164 367.189 60.2881 368.575 64.2656C370.804 70.6606 369.331 76.4959 367.189 77.3653C366.007 77.8713 364.68 77.982 363.423 77.6794C362.166 77.3768 361.054 76.6787 360.265 75.698C360.115 77.4427 359.853 78.8955 356.518 80.277C351.523 82.3431 346.004 76.1089 344.699 72.8935C344.04 71.2111 343.749 69.4177 343.844 67.6239L338.849 86.0408L330.295 83.9568L342.901 37.721C319.868 32.3621 296.335 30.4269 274.013 32.2906C276.476 36.6055 278.125 41.2994 278.884 46.1584C282.005 63.8071 273.358 79.4612 259.559 81.1225C254.995 81.6703 261.239 81.2832 262.013 81.2832L261.464 94.5615C264.791 93.5612 275.887 97.1636 279.446 100.421C304.096 95.9846 378.659 76.5019 378.659 76.5019L382.405 90.6614C380.295 91.1735 375.824 92.4477 375.824 92.4477C375.824 92.4477 382.692 116.265 382.105 116.14L408.061 110.227L411.807 124.381L371.223 134.742L363.73 136.641L369.1 156.999L308.623 171.415L308.729 171.653C339.585 164.424 374.588 156.171 378.777 154.861C380.176 162.042 383.566 168.807 365.778 175.178C356.756 178.411 356.55 174.183 344.118 176.857C340.697 177.595 332.955 181.525 323.102 186.735C326.455 203.193 327.379 216.507 326.224 220.937C322.409 235.198 239.167 249.322 222.902 243.469L223.32 255.526L198.502 260.242C197.192 260.492 195.843 260.493 194.533 260.245C193.222 259.998 191.976 259.506 190.865 258.799C189.754 258.092 188.8 257.182 188.057 256.123C187.315 255.064 186.799 253.876 186.538 252.626L159.066 121.112C158.804 119.862 158.803 118.576 159.063 117.326C159.323 116.076 159.839 114.887 160.581 113.827C161.324 112.768 162.278 111.858 163.389 111.151C164.5 110.443 165.747 109.951 167.058 109.703L204.727 102.558C207.365 102.064 210.101 102.585 212.337 104.009C214.572 105.433 216.126 107.643 216.658 110.156L218.531 119.171C223.246 110.138 229.908 102.862 239.092 98.5152C238.393 89.4705 237.4 80.4437 235.596 72.8399C234.324 73.3405 233.004 73.7234 231.656 73.9832C222.783 75.579 217.145 73.751 208.435 75.1741C189.81 78.2644 189.311 98.2473 159.59 102.415C155.716 102.957 151.794 103.13 147.883 102.933C119.093 136.385 95.798 176.845 73.8761 212.994C33.0045 280.404 -3.39036 332.85 0.249752 388.261C3.74626 443.792 47.1404 502.127 109.709 535.894C172.147 569.667 253.74 578.879 319.805 550.976C320.758 550.579 321.707 550.171 322.652 549.75L321.934 545.296L340.247 540.919C396.485 509.135 440.004 449.222 469.299 374.114C502.192 290.02 517.164 186.967 470.273 118.224ZM353.809 58.6804C351.367 56.7274 348.352 44.0624 355.451 44.6579C362.762 45.2533 357.268 56.3285 353.809 58.6864V58.6804ZM168.032 534.911L132.368 471.92L152.672 462.018L166.889 483.388L178.128 529.832L168.032 534.911Z" fill="#7198B5"/>
<path d="M323.464 186.039C326.811 202.491 327.741 215.81 326.586 220.235C322.502 235.537 227.822 250.602 220.879 241.337C214.336 232.62 189.298 121.654 239.467 97.89" stroke="black" stroke-width="2.5" stroke-miterlimit="10" stroke-linecap="round"/>
<path d="M292.501 112.317C295.27 115.658 297.798 119.173 300.069 122.839" stroke="black" stroke-width="2.5" stroke-miterlimit="10" stroke-linecap="round"/>
<path d="M261.807 93.8827C268.172 94.6099 274.243 96.8498 279.464 100.397" stroke="black" stroke-width="2.5" stroke-miterlimit="10" stroke-linecap="round"/>
<path d="M262.9 102.445C261.351 98.5391 261.651 86.0944 262.363 80.5985" stroke="black" stroke-width="2.5" stroke-linecap="round" stroke-linejoin="round"/>
<path d="M234.828 68.0288C237.687 77.4665 238.917 89.9766 239.748 102.112C242.245 104.19 247.065 104.958 251.68 104.916" stroke="black" stroke-width="2.5" stroke-linecap="round" stroke-linejoin="round"/>
<path fill-rule="evenodd" clip-rule="evenodd" d="M330.295 83.9567L349.301 14.2905L357.767 16.3984L338.78 86.0646L330.295 83.9567Z" stroke="black" stroke-width="2.5" stroke-linecap="round" stroke-linejoin="round"/>
<path d="M335.471 77.3712L340.341 78.5621" stroke="black" stroke-width="2.5" stroke-linecap="round" stroke-linejoin="round"/>
<path d="M337.968 68.2134L342.832 69.4043" stroke="black" stroke-width="2.5" stroke-linecap="round" stroke-linejoin="round"/>
<path d="M340.466 59.0555L345.33 60.2464" stroke="black" stroke-width="2.5" stroke-linecap="round" stroke-linejoin="round"/>
<path d="M342.963 49.8977L347.827 51.0886" stroke="black" stroke-width="2.5" stroke-linecap="round" stroke-linejoin="round"/>
<path d="M345.461 40.7399L350.325 41.9307" stroke="black" stroke-width="2.5" stroke-linecap="round" stroke-linejoin="round"/>
<path d="M347.958 31.5582L352.822 32.7491" stroke="black" stroke-width="2.5" stroke-linecap="round" stroke-linejoin="round"/>
<path d="M350.456 22.4242L355.32 23.6151" stroke="black" stroke-width="2.5" stroke-linecap="round" stroke-linejoin="round"/>
<path fill-rule="evenodd" clip-rule="evenodd" d="M358.679 57.5252C363.749 55.8223 367.189 60.294 368.575 64.2716C370.804 70.6666 369.331 76.5018 367.189 77.3712C366.006 77.8766 364.679 77.9863 363.422 77.6826C362.165 77.379 361.053 76.6797 360.265 75.698C360.115 77.4426 359.853 78.8955 356.518 80.2769C351.523 82.3431 346.004 76.1089 344.699 72.8935C342.963 68.6659 343.781 62.3542 347.509 60.8299C350.581 59.5736 352.679 60.4786 353.646 61.6338C355.014 59.5438 356.55 58.2398 358.679 57.5252Z" stroke="black" stroke-width="2.5" stroke-linecap="round" stroke-linejoin="round"/>
<path d="M222.74 182.204C222.296 194.952 223.47 214.905 241.764 218.943C262.825 223.593 332.049 178.84 344.481 176.172C356.912 173.505 357.143 177.708 366.134 174.463C383.929 168.092 380.538 161.322 379.133 154.147C371.61 156.481 264.492 181.317 260.877 182.222C260.457 181.365 260.094 180.484 259.79 179.584" stroke="black" stroke-width="2.5" stroke-linecap="round" stroke-linejoin="round"/>
<path d="M227.897 120.034C230.401 118.284 233.393 117.281 236.495 117.152C239.939 116.96 243.373 117.672 246.422 119.213" stroke="black" stroke-width="2.5" stroke-miterlimit="10" stroke-linecap="round"/>
<path d="M263.243 146.18C266.802 160.893 266.228 176.065 264.061 177.953C259.69 181.787 218.213 184.574 215.11 180.221C212.388 176.41 210.652 131.919 227.885 120.034" stroke="black" stroke-width="2.5" stroke-miterlimit="10" stroke-linecap="round"/>
<path d="M377.173 132.705L300.262 151.164C293.213 152.855 288.699 158.785 290.179 164.406C291.658 170.027 298.583 173.213 305.638 171.516L382.549 153.057" stroke="black" stroke-width="2.5" stroke-linecap="round" stroke-linejoin="round"/>
<path d="M369.462 156.302L364.092 135.944" stroke="black" stroke-width="2.5" stroke-linecap="round" stroke-linejoin="round"/>
<path fill-rule="evenodd" clip-rule="evenodd" d="M300.069 122.839L297.034 111.406L375.874 92.406L382.118 116.11L303.315 135.099L300.069 122.839Z" stroke="black" stroke-width="2.5" stroke-linecap="round" stroke-linejoin="round"/>
<path fill-rule="evenodd" clip-rule="evenodd" d="M269.786 102.731L378.678 76.478L382.424 90.6375L273.545 116.884L269.786 102.731Z" stroke="black" stroke-width="2.5" stroke-linecap="round" stroke-linejoin="round"/>
<path d="M302.017 153.421L305.913 168.426" stroke="black" stroke-width="2.5" stroke-miterlimit="10" stroke-linecap="round"/>
<path d="M277.616 109.459L322.496 98.4973" stroke="black" stroke-width="2.5" stroke-miterlimit="10" stroke-linecap="round"/>
<path fill-rule="evenodd" clip-rule="evenodd" d="M132.368 471.92L168.038 534.911L178.097 529.85L166.858 483.406L152.641 462.036L132.368 471.92Z" stroke="black" stroke-width="2.5" stroke-miterlimit="10" stroke-linecap="round"/>
<path fill-rule="evenodd" clip-rule="evenodd" d="M325.406 566.791L399.319 554.287L397.446 543.569L347.677 539.109L321.934 545.26L325.406 566.791Z" stroke="black" stroke-width="2.5" stroke-miterlimit="10" stroke-linecap="round"/>
<path d="M274.45 31.32C276.467 26.4494 277.635 24.2879 276.985 19.5363C274.163 4.93024 259.116 -1.37544 245.773 1.36952C222.621 6.13303 211.432 18.0418 197.609 20.2628C176.63 23.6091 157.087 16.0947 135.065 21.6323C105.226 29.1348 100.787 49.4571 105.132 67.6894C112.319 97.8483 139.517 104.607 159.921 101.76C189.642 97.5922 190.147 77.6094 208.785 74.5548C217.495 73.1317 223.146 74.9537 232.005 73.3639C233.356 73.1011 234.677 72.7163 235.951 72.2147" stroke="black" stroke-width="2.5" stroke-linecap="round" stroke-linejoin="round"/>
<path d="M270.623 26.6399C275.356 31.6594 277.935 38.1557 279.227 45.4795C282.349 63.1283 273.701 78.7824 259.909 80.4436C255.28 80.9286 250.612 79.945 246.628 77.6451" stroke="black" stroke-width="2.5" stroke-linecap="round" stroke-linejoin="round"/>
<path d="M243.251 50.2133C239.71 52.071 236.264 53.6727 233.26 54.9053" stroke="black" stroke-width="2.5" stroke-linecap="round" stroke-linejoin="round"/>
<path d="M270.174 24.7465C270.648 27.1282 269.512 29.8315 267.32 32.6181" stroke="black" stroke-width="2.5" stroke-linecap="round" stroke-linejoin="round"/>
<path d="M236.769 66.2008C235.937 66.8185 234.963 67.2381 233.927 67.4247C232.89 67.6113 231.823 67.5595 230.812 67.2737C229.801 66.9879 228.876 66.4762 228.114 65.7812C227.351 65.0862 226.774 64.2279 226.429 63.2775C226.085 62.3271 225.983 61.312 226.132 60.3165C226.281 59.321 226.677 58.3738 227.287 57.5534C227.897 56.7331 228.703 56.0633 229.639 55.5997C230.575 55.136 231.613 54.8918 232.667 54.8875C233.342 54.8875 234.014 54.9839 234.659 55.1733" stroke="black" stroke-width="2.5" stroke-linecap="round" stroke-linejoin="round"/>
<path fill-rule="evenodd" clip-rule="evenodd" d="M322.846 224.748C309.178 234.87 262.388 243.802 237.057 244.159C249.251 281.964 321.934 545.296 321.934 545.296L345.423 539.681L322.846 224.748Z" fill="black"/>
<path fill-rule="evenodd" clip-rule="evenodd" d="M220.854 241.337C220.606 240.985 220.385 240.617 220.192 240.235C224.919 263.702 245.486 364.872 251.967 380.086C242.227 387.624 152.691 462.018 152.691 462.018L164.211 479.405L292.208 413.436L270.448 240.759C246.853 244.659 224.151 245.69 220.854 241.337Z" fill="black"/>
<path d="M223.295 255.526L198.477 260.242C197.167 260.492 195.818 260.493 194.508 260.245C193.197 259.998 191.951 259.506 190.84 258.799C189.729 258.092 188.775 257.182 188.032 256.123C187.29 255.064 186.774 253.876 186.514 252.626L159.041 121.112C158.779 119.862 158.778 118.576 159.038 117.326C159.298 116.076 159.814 114.887 160.556 113.827C161.299 112.768 162.253 111.858 163.364 111.151C164.475 110.443 165.722 109.951 167.033 109.703L204.702 102.558C207.343 102.057 210.086 102.575 212.327 103.999C214.569 105.424 216.127 107.638 216.658 110.156L218.531 119.171" stroke="black" stroke-width="2.5" stroke-linecap="round" stroke-linejoin="round"/>
<path d="M214.673 113.729C217.876 111.184 221.668 109.404 225.737 108.536" stroke="#BCBCBC" stroke-width="4" stroke-linecap="round" stroke-linejoin="round"/>
<path d="M225.568 201.972C219.356 197.983 213.705 191.981 209.334 184.544" stroke="#BCBCBC" stroke-width="4" stroke-linecap="round" stroke-linejoin="round"/>
<path d="M225.737 108.56C245.305 104.464 266.234 123.148 272.49 150.3C274.988 161.06 274.769 171.528 272.403 180.507" stroke="#BCBCBC" stroke-width="4" stroke-linecap="round" stroke-linejoin="round"/>
</g>
<defs>
<clipPath id="clip0_44_30">
<rect width="500" height="567.661" fill="white"/>
</clipPath>
</defs>
</svg>
